M48
; DRILL file {KiCad 8.0.8} date 2025-02-20T12:09:39+0100
; FORMAT={-:-/ absolute / inch / decimal}
; #@! TF.CreationDate,2025-02-20T12:09:39+01:00
; #@! TF.GenerationSoftware,Kicad,Pcbnew,8.0.8
; #@! TF.FileFunction,Plated,1,2,PTH
FMAT,2
INCH
; #@! TA.AperFunction,Plated,PTH,ViaDrill
T1C0.0157
; #@! TA.AperFunction,Plated,PTH,ComponentDrill
T2C0.0315
; #@! TA.AperFunction,Plated,PTH,ComponentDrill
T3C0.0354
; #@! TA.AperFunction,Plated,PTH,ComponentDrill
T4C0.0394
; #@! TA.AperFunction,Plated,PTH,ComponentDrill
T5C0.0409
; #@! TA.AperFunction,Plated,PTH,ComponentDrill
T6C0.0433
; #@! TA.AperFunction,Plated,PTH,ComponentDrill
T7C0.0472
%
G90
G05
T1
X2.2272Y-2.4728
X2.615Y-5.39
X3.85Y-2.175
X3.875Y-2.55
X4.28Y-4.285
X4.525Y-4.175
X4.625Y-4.8
X4.67Y-4.7
X4.775Y-2.625
X4.825Y-4.6
T2
X2.175Y-2.525
X2.175Y-3.425
X2.175Y-3.575
X2.175Y-4.475
X2.175Y-4.625
X2.175Y-5.525
X2.275Y-2.525
X2.275Y-3.425
X2.275Y-3.575
X2.275Y-4.475
X2.275Y-4.625
X2.275Y-5.525
X2.375Y-2.525
X2.375Y-2.875
X2.375Y-3.15
X2.375Y-3.425
X2.375Y-3.575
X2.375Y-4.475
X2.375Y-4.625
X2.375Y-5.525
X2.475Y-2.525
X2.475Y-3.425
X2.475Y-3.575
X2.475Y-4.475
X2.475Y-4.625
X2.475Y-5.525
X2.575Y-2.525
X2.575Y-3.425
X2.575Y-3.575
X2.575Y-4.475
X2.575Y-4.625
X2.575Y-5.525
X2.675Y-2.525
X2.675Y-3.425
X2.675Y-3.575
X2.675Y-4.475
X2.675Y-4.625
X2.675Y-5.525
X2.775Y-2.525
X2.775Y-2.875
X2.775Y-3.15
X2.775Y-3.425
X2.775Y-3.575
X2.775Y-4.475
X2.775Y-4.625
X2.775Y-5.525
X2.875Y-2.525
X2.875Y-3.425
X2.875Y-3.575
X2.875Y-4.475
X2.875Y-4.625
X2.875Y-5.525
X3.2449Y-2.5984
X3.2449Y-2.7756
X3.2449Y-3.275
X3.2449Y-3.45
X3.2449Y-3.625
X3.2449Y-4.175
X3.2449Y-4.3504
X3.2449Y-4.5276
X3.2449Y-4.7
X3.25Y-3.8
X3.6449Y-2.5984
X3.6449Y-2.7756
X3.6449Y-3.275
X3.6449Y-3.45
X3.6449Y-3.625
X3.6449Y-4.175
X3.6449Y-4.3504
X3.6449Y-4.5276
X3.6449Y-4.7
X3.65Y-3.8
X3.6811Y-3.0258
X3.6811Y-3.1242
X3.6811Y-3.9258
X3.6811Y-4.0242
X3.8508Y-3.4449
X3.8508Y-3.65
X3.8508Y-4.25
X3.8583Y-2.8543
X3.8754Y-2.9795
X3.8754Y-3.2795
X3.8754Y-3.7746
X3.8754Y-4.0746
X3.9492Y-3.4449
X3.9492Y-3.65
X3.9492Y-4.25
X3.9567Y-2.8543
X3.9754Y-2.9795
X3.9754Y-3.2795
X3.9754Y-3.7746
X3.9754Y-4.0746
X4.0754Y-2.9795
X4.0754Y-3.2795
X4.0754Y-3.7746
X4.0754Y-4.0746
X4.0758Y-2.8543
X4.0758Y-3.4449
X4.0758Y-3.65
X4.0758Y-4.25
X4.1742Y-2.8543
X4.1742Y-3.4449
X4.1742Y-3.65
X4.1742Y-4.25
X4.1754Y-2.9795
X4.1754Y-3.2795
X4.1754Y-3.7746
X4.1754Y-4.0746
X4.3472Y-4.6457
X4.3472Y-4.8228
X4.3472Y-5.0197
X4.3472Y-5.1969
X4.3472Y-5.374
X4.35Y-2.8
X4.35Y-3.0
X4.35Y-3.2
X4.35Y-3.4
X4.35Y-3.6
X4.35Y-3.8
X4.35Y-3.975
X4.35Y-4.175
X4.7472Y-4.6457
X4.7472Y-4.8228
X4.7472Y-5.0197
X4.7472Y-5.1969
X4.7472Y-5.374
X4.75Y-2.8
X4.75Y-3.0
X4.75Y-3.2
X4.75Y-3.4
X4.75Y-3.6
X4.75Y-3.8
X4.75Y-3.975
X4.75Y-4.175
X4.9Y-3.5406
X4.9Y-3.6406
X4.9Y-3.7406
X4.9Y-3.8406
X4.9Y-3.9406
X4.9Y-4.0406
X4.9Y-4.1406
X4.9Y-4.2406
X5.15Y-2.85
X5.1543Y-2.65
X5.55Y-2.85
X5.5543Y-2.65
X5.8Y-3.5406
X5.8Y-3.6406
X5.8Y-3.7406
X5.8Y-3.8406
X5.8Y-3.9406
X5.8Y-4.0406
X5.8Y-4.1406
X5.8Y-4.2406
T3
X2.9618Y-2.2441
X3.0618Y-2.2441
X3.7886Y-2.2441
X3.826Y-5.6516
X3.826Y-5.7516
X3.8886Y-2.2441
X4.0031Y-5.65
X4.0031Y-5.75
X4.2Y-5.65
X4.2Y-5.75
X4.3772Y-5.6516
X4.3772Y-5.7516
X4.5543Y-5.6516
X4.5543Y-5.7516
T4
X3.248Y-2.9331
X3.248Y-3.9961
X3.248Y-5.0591
X4.1016Y-2.25
X4.2016Y-2.25
X4.3016Y-2.25
X4.4016Y-2.25
X5.125Y-5.725
X5.225Y-5.725
X5.325Y-5.725
X5.425Y-5.725
X5.525Y-5.725
X5.575Y-3.3498
X5.575Y-3.4498
X5.575Y-3.5498
X5.575Y-3.6498
X5.575Y-3.7498
X5.575Y-3.8498
X5.575Y-3.9498
X5.575Y-4.0498
X5.575Y-4.1498
X5.575Y-4.2498
X5.6Y-2.4606
X5.7Y-2.4606
T5
X4.022Y-4.4921
X4.022Y-5.4921
X4.122Y-4.4921
X4.122Y-5.4921
X4.222Y-4.4921
X4.222Y-5.4921
X4.322Y-4.4921
X4.322Y-5.4921
X4.422Y-4.4921
X4.422Y-5.4921
X4.522Y-4.4921
X4.522Y-5.4921
X4.622Y-4.4921
X4.622Y-5.4921
X4.722Y-4.4921
X4.722Y-5.4921
X4.822Y-4.4921
X4.822Y-5.4921
X4.922Y-4.4921
X4.922Y-5.4921
X5.022Y-4.4921
X5.022Y-5.4921
X5.122Y-4.4921
X5.122Y-5.4921
X5.222Y-4.4921
X5.222Y-5.4921
X5.322Y-4.4921
X5.322Y-5.4921
X5.422Y-4.4921
X5.422Y-5.4921
X5.522Y-4.4921
X5.522Y-5.4921
X5.622Y-4.4921
X5.622Y-5.4921
X5.722Y-4.4921
X5.722Y-5.4921
X5.822Y-4.4921
X5.822Y-5.4921
T6
X3.775Y-2.4606
X3.775Y-2.65
X4.175Y-2.4606
X4.175Y-2.65
T7
X2.4Y-2.25
X2.5Y-2.25
X2.6Y-2.25
X2.7Y-2.25
X2.8Y-2.25
X3.2268Y-2.25
X3.3268Y-2.25
X3.5614Y-2.25
X3.6614Y-2.25
X4.8018Y-2.25
X4.9018Y-2.25
X5.0018Y-2.25
X5.3002Y-2.2559
X5.4002Y-2.2559
M30
